<?xml version="1.0" encoding="UTF-8" standalone="no"?>
<svg
   xmlns:dc="http://purl.org/dc/elements/1.1/"
   xmlns:cc="http://creativecommons.org/ns#"
   xmlns:rdf="http://www.w3.org/1999/02/22-rdf-syntax-ns#"
   xmlns:svg="http://www.w3.org/2000/svg"
   xmlns="http://www.w3.org/2000/svg"
   xmlns:sodipodi="http://sodipodi.sourceforge.net/DTD/sodipodi-0.dtd"
   xmlns:inkscape="http://www.inkscape.org/namespaces/inkscape"
   version="1.1"
   id="svg2"
   viewBox="0 0 512.00001 512.00001"
   height="512"
   width="512"
   inkscape:version="0.91 r13725"
   sodipodi:docname="speaky-logo.svg"
   inkscape:export-filename="C:\Users\Owner\Desktop\Speaky-chrome\assets\speaky-logo.png"
   inkscape:export-xdpi="90"
   inkscape:export-ydpi="90">
  <sodipodi:namedview
     pagecolor="#ffffff"
     bordercolor="#666666"
     borderopacity="1"
     objecttolerance="10"
     gridtolerance="10"
     guidetolerance="10"
     inkscape:pageopacity="0"
     inkscape:pageshadow="2"
     inkscape:window-width="1366"
     inkscape:window-height="705"
     id="namedview9"
     showgrid="false"
     inkscape:zoom="0.4609375"
     inkscape:cx="256"
     inkscape:cy="82.440678"
     inkscape:window-x="-8"
     inkscape:window-y="-8"
     inkscape:window-maximized="1"
     inkscape:current-layer="svg2" />
  <defs
     id="defs4" />
  <metadata
     id="metadata7">
    <rdf:RDF>
      <cc:Work
         rdf:about="">
        <dc:format>image/svg+xml</dc:format>
        <dc:type
           rdf:resource="http://purl.org/dc/dcmitype/StillImage" />
        <dc:title />
      </cc:Work>
    </rdf:RDF>
  </metadata>
  <rect
     style="opacity:1;fill:#007ee5;fill-opacity:1;stroke:none;stroke-width:8;stroke-miterlimit:4;stroke-dasharray:none;stroke-opacity:1"
     id="rect4154"
     width="512"
     height="512"
     x="0"
     y="0"
     inkscape:export-xdpi="90"
     inkscape:export-ydpi="90" />
  <g
     id="g4156"
     transform="matrix(0.77118645,0,0,0.77118645,58.576268,58.576277)"
     inkscape:export-xdpi="90"
     inkscape:export-ydpi="90">
    <rect
       y="64.587807"
       x="16.957314"
       height="393.93146"
       width="476.10922"
       id="rect4173"
       style="opacity:1;fill:#ffffff;fill-opacity:1;stroke:none;stroke-width:8;stroke-miterlimit:4;stroke-dasharray:none;stroke-opacity:1" />
    <path
       style="fill:#007ee5;fill-opacity:1"
       d="M 0,256.00002 0,2.4311075e-5 l 256,0 256,0 L 512,256.00002 l 0,256.00003 -256,0 -256,0 0,-256.00003 z m 307.4335,150.06945 c 27.78922,-12.39032 59.18032,-28.47837 80.92463,-41.47415 28.37582,-16.95919 51.72463,-35.58763 59.23375,-47.2586 10.77807,-16.75172 18.01697,-39.95042 20.86797,-66.87618 1.30104,-12.28737 0.95389,-43.78558 -0.6098,-55.32925 -4.6877,-34.60628 -14.80744,-63.96249 -25.08058,-72.75591 -12.39993,-10.61388 -68.87898,-19.10433 -148.26473,-22.28852 -20.8769,-0.837379 -79.64815,-0.843055 -99.84144,-0.01 -63.74328,2.63079 -106.557553,9.16773 -125.766689,19.20224 -12.985797,6.78354 -21.079443,23.49787 -25.091886,51.81768 -1.376008,9.71185 -1.183382,50.97964 0.30137,64.56494 3.353552,30.68459 8.327339,56.87295 14.347016,75.54098 3.020829,9.3681 4.753609,12.79922 7.826315,15.4971 8.34243,7.32474 34.411624,13.06869 73.826504,16.26652 15.79155,1.28121 68.5381,1.07388 86.51702,-0.34007 33.15099,-2.60717 59.69423,-6.45884 85.04428,-12.34073 9.44596,-2.19171 29.83706,-7.8473 30.42958,-8.43982 0.43819,-0.43819 -3.35544,-12.56432 -3.93338,-12.57286 -0.26383,-0.004 -4.93761,1.27244 -10.38616,2.83631 -41.73532,11.97904 -93.26333,18.46368 -146.6726,18.45829 -42.2134,-0.005 -75.77781,-3.52611 -96.524595,-10.1281 -9.344361,-2.97354 -10.203017,-3.78499 -12.894787,-12.1858 -5.744343,-17.92767 -10.836125,-44.20736 -13.939821,-71.94617 -1.630027,-14.56812 -1.996471,-48.88259 -0.648119,-60.69105 2.695605,-23.60729 8.573786,-38.57298 17.188448,-43.76134 8.701934,-5.24093 31.165974,-10.49628 58.395164,-13.66126 32.91606,-3.826 62.36334,-5.20752 111.0517,-5.21001 55.74593,-0.003 100.09932,2.38579 138.42332,7.45473 29.7037,3.92876 47.90209,8.52194 52.43668,13.23474 6.22316,6.46774 14.24447,29.29318 17.98672,51.183 4.15284,24.29149 4.51324,53.38242 0.94138,75.98587 -2.90467,18.38131 -9.64,37.41986 -17.33085,48.98854 -8.38036,12.60588 -33.02035,31.01643 -67.86397,50.70674 -14.77281,8.34819 -48.61692,25.22996 -66.79478,33.31787 -7.27261,3.23583 -13.2959,5.95629 -13.38509,6.04548 -0.46781,0.46782 4.68205,12.02333 5.35835,12.02333 0.4387,0 6.70679,-2.6347 13.92908,-5.85489 z"
       id="path4149"
       inkscape:connector-curvature="0" />
  </g>
</svg>
